<?xml version="1.0" standalone="no"?><!DOCTYPE svg PUBLIC "-//W3C//DTD SVG 1.1//EN" "http://www.w3.org/Graphics/SVG/1.1/DTD/svg11.dtd"><svg t="1679389407247" class="icon" viewBox="0 0 1024 1024" version="1.1" xmlns="http://www.w3.org/2000/svg" p-id="7766" xmlns:xlink="http://www.w3.org/1999/xlink" width="128" height="128"><path d="M883.626667 181.333333l-42.666667-42.666666a42.666667 42.666667 0 0 0-29.866667-12.373334h-48.64a42.666667 42.666667 0 0 0-29.866666 12.373334l-148.48 150.186666-60.16-60.586666a21.333333 21.333333 0 0 0-29.866667 0l-30.293333 30.293333a21.333333 21.333333 0 0 0 0 30.293333l30.293333 29.866667-328.533333 328.533333a85.333333 85.333333 0 0 0-20.48 87.893334l21.333333 62.293333-32 32a21.333333 21.333333 0 0 0 0 30.293333l29.866667 29.866667a21.333333 21.333333 0 0 0 30.293333 0l32-32 62.293333 21.333333a87.466667 87.466667 0 0 0 27.306667 4.693334 85.333333 85.333333 0 0 0 60.586667-25.173334l328.533333-328.533333 29.866667 30.293333a21.333333 21.333333 0 0 0 30.293333 0l30.293333-30.293333a21.333333 21.333333 0 0 0 0-29.866667l-60.586666-60.16 148.48-148.48a42.666667 42.666667 0 0 0 12.373333-29.866666V213.333333a42.666667 42.666667 0 0 0-12.373333-32zM517.12 597.333333H336.213333L554.666667 380.16 644.693333 469.333333z" p-id="7767" fill="#594d3a"></path></svg>