<?xml version="1.0" standalone="no"?><!DOCTYPE svg PUBLIC "-//W3C//DTD SVG 1.1//EN" "http://www.w3.org/Graphics/SVG/1.1/DTD/svg11.dtd"><svg t="1679392329658" class="icon" viewBox="0 0 1024 1024" version="1.1" xmlns="http://www.w3.org/2000/svg" p-id="11132" xmlns:xlink="http://www.w3.org/1999/xlink" width="128" height="128"><path d="M387.029333 487.466667a21.333333 21.333333 0 0 1 0 30.186666l-33.194666 33.194667a21.333333 21.333333 0 0 1-30.165334 0L109.802667 336.981333a21.333333 21.333333 0 0 1 0-30.165333L323.669333 92.949333a21.333333 21.333333 0 0 1 30.165334 0l33.194666 33.173334a21.333333 21.333333 0 0 1 1.770667 28.16l-1.770667 2.005333-122.965333 122.944H635.306667c164.416 0 297.706667 133.290667 297.706666 297.706667 0 162.218667-129.706667 294.122667-291.072 297.664l-6.634666 0.064H256a21.333333 21.333333 0 0 1-21.333333-21.333334v-42.666666a21.333333 21.333333 0 0 1 21.333333-21.333334h379.306667c117.333333 0 212.394667-95.082667 212.394666-212.394666 0-115.306667-91.882667-209.152-206.442666-212.288l-5.930667-0.085334H264.106667l122.922666 122.922667z" fill="#74644c" p-id="11133"></path></svg>