<?xml version="1.0" standalone="no"?><!DOCTYPE svg PUBLIC "-//W3C//DTD SVG 1.1//EN" "http://www.w3.org/Graphics/SVG/1.1/DTD/svg11.dtd"><svg t="1679390703488" class="icon" viewBox="0 0 1024 1024" version="1.1" xmlns="http://www.w3.org/2000/svg" p-id="11576" xmlns:xlink="http://www.w3.org/1999/xlink" width="128" height="128"><path d="M170.666667 128 213.333333 128 213.333333 213.333333 128 213.333333 128 170.666667C128 147.2 147.2 128 170.666667 128M853.333333 128C876.8 128 896 147.2 896 170.666667L896 213.333333 810.666667 213.333333 810.666667 128 853.333333 128M640 213.333333 640 128 725.333333 128 725.333333 213.333333 640 213.333333M469.333333 213.333333 469.333333 128 554.666667 128 554.666667 213.333333 469.333333 213.333333M298.666667 213.333333 298.666667 128 384 128 384 213.333333 298.666667 213.333333M896 853.333333C896 876.8 876.8 896 853.333333 896L810.666667 896 810.666667 810.666667 896 810.666667 896 853.333333M640 896 640 810.666667 725.333333 810.666667 725.333333 896 640 896M469.333333 896 469.333333 810.666667 554.666667 810.666667 554.666667 896 469.333333 896M298.666667 896 298.666667 810.666667 384 810.666667 384 896 298.666667 896M170.666667 896C147.2 896 128 876.8 128 853.333333L128 810.666667 213.333333 810.666667 213.333333 896 170.666667 896M128 640 213.333333 640 213.333333 725.333333 128 725.333333 128 640M896 640 896 725.333333 810.666667 725.333333 810.666667 640 896 640M128 469.333333 213.333333 469.333333 213.333333 554.666667 128 554.666667 128 469.333333M896 469.333333 896 554.666667 810.666667 554.666667 810.666667 469.333333 896 469.333333M128 298.666667 213.333333 298.666667 213.333333 384 128 384 128 298.666667M896 298.666667 896 384 810.666667 384 810.666667 298.666667 896 298.666667Z" p-id="11577" fill="#594d3a"></path></svg>