<?xml version="1.0" standalone="no"?><!DOCTYPE svg PUBLIC "-//W3C//DTD SVG 1.1//EN" "http://www.w3.org/Graphics/SVG/1.1/DTD/svg11.dtd"><svg t="1679562806744" class="icon" viewBox="0 0 1024 1024" version="1.1" xmlns="http://www.w3.org/2000/svg" p-id="23546" xmlns:xlink="http://www.w3.org/1999/xlink" width="128" height="128"><path d="M894.912481 512.592494c-0.001023 36.228109-29.368888 65.596997-65.598021 65.598021l-632.749108-0.001023c-36.228109-0.001023-65.596997-29.368888-65.596997-65.596997l0 0c0-36.228109 29.367865-65.596997 65.596997-65.596997l632.750131 0.001023C865.543593 446.99652 894.912481 476.365408 894.912481 512.592494L894.912481 512.592494z" fill="#594d3a" p-id="23547"></path><path d="M508.420987 889.020796c-36.228109 0-65.596997-29.367865-65.598021-65.598021l0.001023-632.748085c0.001023-36.228109 29.368888-65.596997 65.596997-65.596997l0 0c36.228109 0 65.595974 29.367865 65.598021 65.596997l-0.002047 632.750131C574.015937 859.651908 544.648073 889.020796 508.420987 889.020796L508.420987 889.020796z" fill="#594d3a" p-id="23548"></path></svg>