<?xml version="1.0" standalone="no"?><!DOCTYPE svg PUBLIC "-//W3C//DTD SVG 1.1//EN" "http://www.w3.org/Graphics/SVG/1.1/DTD/svg11.dtd"><svg t="1679566315443" class="icon" viewBox="0 0 1024 1024" version="1.1" xmlns="http://www.w3.org/2000/svg" p-id="5432" xmlns:xlink="http://www.w3.org/1999/xlink" width="128" height="128"><path d="M864.193 928.229c-17.01 0-33.518-7.004-45.023-19.011L647.574 738.124c-58.531 40.522-128.57 62.034-199.609 62.034-194.606 0-352.193-157.587-352.193-352.193 0-194.607 157.587-352.193 352.193-352.193 194.607 0 352.193 157.586 352.193 352.193 0 71.039-21.512 141.077-62.033 199.609l171.594 171.595c11.506 11.506 18.51 28.015 18.51 45.024C928.229 899.213 899.213 928.229 864.193 928.229zM447.965 223.842c-123.567 0-224.123 100.555-224.123 224.123 0 123.567 100.556 224.123 224.123 224.123 123.568 0 224.123-100.556 224.123-224.123C672.088 324.397 571.533 223.842 447.965 223.842z" p-id="5433" fill="#594d3a"></path></svg>